<svg width="65" height="60" viewBox="0 0 65 60" fill="none" xmlns="http://www.w3.org/2000/svg">
<path d="M5 1.5H34.4893C35.48 1.5 36.4252 1.91961 37.0889 2.65527L40.5225 6.46191L44.418 11.5664C44.8836 12.1764 45.1357 12.923 45.1357 13.6904V55C45.1357 56.933 43.5687 58.5 41.6357 58.5H5C3.067 58.5 1.5 56.933 1.5 55V5C1.5 3.067 3.067 1.5 5 1.5Z" fill="white" stroke="#020240" stroke-width="3"/>
<path d="M34.7287 2V11C34.7287 12.1046 35.6241 13 36.7287 13H44.6512" stroke="#020240" stroke-width="3"/>
<path d="M7.93799 16.5L11.4109 20L17.8605 13" stroke="#020240" stroke-width="2"/>
<line x1="22.7806" y1="15.5" x2="31.7902" y2="15.5" stroke="#020240" stroke-width="2"/>
<line x1="22.8217" y1="29" x2="31.8313" y2="29" stroke="#020240" stroke-width="2"/>
<line x1="22.8629" y1="42.5" x2="31.8725" y2="42.5" stroke="#020240" stroke-width="2"/>
<path d="M22.7806 20.5H37.7437" stroke="#020240" stroke-width="2"/>
<path d="M22.8217 34H37.7848" stroke="#020240" stroke-width="2"/>
<path d="M22.8629 47.5H37.826" stroke="#020240" stroke-width="2"/>
<rect x="8.93799" y="28" width="5.93798" height="6" fill="white" stroke="#020240" stroke-width="2"/>
<rect x="8.93799" y="42" width="5.93798" height="6" fill="white" stroke="#020240" stroke-width="2"/>
<path d="M53.5814 18.5V51.3125C53.5814 51.758 53.7302 52.1908 54.0041 52.5422L57.385 56.8788C58.209 57.9357 59.8191 57.899 60.594 56.8056L63.6223 52.5329C63.8677 52.1867 63.9966 51.7712 63.9903 51.3468L63.5039 18.5M53.5814 18.5V13C53.5814 10.7909 55.3723 9 57.5814 9H59.5039C61.713 9 63.5039 10.7909 63.5039 13V18.5M53.5814 18.5H63.5039" stroke="#020240" stroke-width="2"/>
</svg>
