<svg width="65" height="71" viewBox="0 0 65 71" fill="none" xmlns="http://www.w3.org/2000/svg">
<mask id="path-1-inside-1_42_411" fill="white">
<path d="M60.6815 38.9437C60.6815 45.086 58.902 51.0905 55.5681 56.1976C52.2343 61.3048 47.4957 65.2854 41.9516 67.636C36.4076 69.9866 30.3071 70.6016 24.4216 69.4033C18.536 68.2049 13.1298 65.2471 8.8866 60.9038C4.64337 56.5605 1.75369 51.0268 0.582989 45.0025C-0.587715 38.9781 0.0131326 32.7337 2.30955 27.0589C4.60597 21.3841 8.49482 16.5338 13.4843 13.1213C18.4738 9.70875 24.3399 7.88733 30.3407 7.88733L30.3407 38.9437H60.6815Z"/>
</mask>
<path d="M60.6815 38.9437C60.6815 45.086 58.902 51.0905 55.5681 56.1976C52.2343 61.3048 47.4957 65.2854 41.9516 67.636C36.4076 69.9866 30.3071 70.6016 24.4216 69.4033C18.536 68.2049 13.1298 65.2471 8.8866 60.9038C4.64337 56.5605 1.75369 51.0268 0.582989 45.0025C-0.587715 38.9781 0.0131326 32.7337 2.30955 27.0589C4.60597 21.3841 8.49482 16.5338 13.4843 13.1213C18.4738 9.70875 24.3399 7.88733 30.3407 7.88733L30.3407 38.9437H60.6815Z" fill="white" stroke="#54A2A6" stroke-width="4" mask="url(#path-1-inside-1_42_411)"/>
<mask id="path-2-inside-2_42_411" fill="white">
<path d="M61.6296 34.4059C61.6296 30.9101 60.9184 27.4486 59.5366 24.2189C58.1548 20.9893 56.1294 18.0547 53.5761 15.5829C51.0229 13.111 47.9917 11.1502 44.6557 9.81244C41.3197 8.47467 37.7442 7.78613 34.1333 7.78613L34.1333 34.4059H61.6296Z"/>
</mask>
<path d="M61.6296 34.4059C61.6296 30.9101 60.9184 27.4486 59.5366 24.2189C58.1548 20.9893 56.1294 18.0547 53.5761 15.5829C51.0229 13.111 47.9917 11.1502 44.6557 9.81244C41.3197 8.47467 37.7442 7.78613 34.1333 7.78613L34.1333 34.4059H61.6296Z" fill="white" stroke="#54A2A6" stroke-width="4" mask="url(#path-2-inside-2_42_411)"/>
<path d="M44.6048 23.8502L51.6573 3.84246L63.0351 3.84246" stroke="#54A2A6" stroke-width="2"/>
<path d="M42.1926 50.7747L55.4666 59.6485L64 59.6485" stroke="#54A2A6" stroke-width="2"/>
<path d="M54.0444 9.85913H63.0518" stroke="#54A2A6" stroke-width="2"/>
<line y1="-1" x2="7.58518" y2="-1" transform="matrix(1 0 0 -1 55.9407 63.0986)" stroke="#54A2A6" stroke-width="2"/>
<path d="M56.8889 14.7887H63.0518" stroke="#54A2A6" stroke-width="2"/>
<line y1="-1" x2="5.68889" y2="-1" transform="matrix(1 0 0 -1 57.837 68.0282)" stroke="#54A2A6" stroke-width="2"/>
</svg>
