<svg width="66" height="71" viewBox="0 0 66 71" fill="none" xmlns="http://www.w3.org/2000/svg">
<path d="M1 49.759V53.3494C1 55.5585 2.79086 57.3494 5 57.3494H22.471M1 49.759V8.74695C1 7.64238 1.89543 6.74695 3 6.74695H63C64.1046 6.74695 65 7.64238 65 8.74695V49.759M1 49.759H65M65 49.759V53.3494C65 55.5585 63.2091 57.3494 61 57.3494H43.7355M22.471 57.3494L21.6452 70M22.471 57.3494H43.7355M21.6452 70H16.6903M21.6452 70H44.7677M44.7677 70H50.1355M44.7677 70L43.7355 57.3494M33.4129 44.6988H58.4581C59.5626 44.6988 60.4581 43.8033 60.4581 42.6988V13.8072C60.4581 12.7026 59.5626 11.8072 58.4581 11.8072H8.36774C7.26317 11.8072 6.36774 12.7026 6.36774 13.8072V42.6988C6.36774 43.8033 7.26317 44.6988 8.36774 44.6988H9.67097H19.8903H26.6516H33.4129Z" stroke="#EF5B5B" stroke-width="2"/>
<path d="M24.6144 9.75098C25.0451 8.1414 27.3291 8.14138 27.7599 9.75098C28.3767 12.0572 31.0146 13.15 33.0812 11.9551C34.516 11.1253 36.1398 12.7337 35.3029 14.1846C34.1111 16.2507 35.2002 18.8903 37.507 19.5088C39.1185 19.9411 39.1185 22.2279 37.507 22.6602C35.2002 23.2787 34.111 25.9182 35.3029 27.9844C36.1396 29.4352 34.516 31.0436 33.0812 30.2139C31.0147 29.0189 28.3769 30.111 27.7599 32.417C27.3293 34.027 25.045 34.027 24.6144 32.417C23.9974 30.111 21.3596 29.019 19.2931 30.2139C17.8583 31.0436 16.2346 29.4352 17.0714 27.9844C18.2632 25.9182 17.1741 23.2787 14.8673 22.6602C13.2556 22.2279 13.2557 19.9411 14.8673 19.5088C17.174 18.8903 18.2631 16.2507 17.0714 14.1846C16.2345 12.7337 17.8582 11.1253 19.2931 11.9551C21.3597 13.1499 23.9976 12.0572 24.6144 9.75098Z" fill="white" stroke="#EF5B5B" stroke-width="2"/>
<path d="M26.1874 17.5007C28.1621 17.5009 29.7645 19.1045 29.7645 21.0847C29.7643 23.0647 28.1619 24.6676 26.1874 24.6677C24.2127 24.6677 22.6095 23.0648 22.6093 21.0847C22.6093 19.1044 24.2126 17.5007 26.1874 17.5007Z" fill="white" stroke="#EF5B5B" stroke-width="2"/>
<path d="M44.3667 26.6818C44.8611 25.7037 46.3321 26.0139 46.4068 27.112C46.5423 29.1138 48.517 30.4716 50.4197 29.8673L50.5709 29.8194C51.573 29.501 52.3654 30.7251 51.6548 31.51C50.3082 32.9976 50.7639 35.377 52.5706 36.279C53.5233 36.7546 53.2339 38.1859 52.1747 38.2374C50.166 38.3348 48.8249 40.3353 49.4843 42.2459C49.8324 43.254 48.6301 44.0576 47.8334 43.3599L47.7132 43.2547C46.2004 41.9303 43.8607 42.3783 42.9599 44.1616C42.4655 45.1399 40.9944 44.8297 40.9198 43.7314C40.7843 41.7296 38.8096 40.3719 36.9069 40.9761L36.7557 41.024C35.7535 41.3425 34.9612 40.1183 35.6718 39.3334C37.0182 37.8458 36.5626 35.4664 34.756 34.5645C33.8033 34.0888 34.0926 32.6575 35.1519 32.606C37.1606 32.5086 38.5018 30.5081 37.8423 28.5975C37.4942 27.5894 38.6964 26.7858 39.4932 27.4835L39.6134 27.5887C41.1262 28.9132 43.4659 28.4651 44.3667 26.6818Z" fill="white" stroke="#EF5B5B" stroke-width="2"/>
<path d="M44.1668 32.9329C45.6071 33.2368 46.5046 34.6105 46.2313 35.963C45.9578 37.3156 44.6009 38.2139 43.1606 37.9104C41.7201 37.6066 40.8217 36.2327 41.0952 34.88C41.3687 33.5275 42.7264 32.6292 44.1668 32.9329Z" fill="white" stroke="#EF5B5B" stroke-width="2"/>
<ellipse cx="32.7935" cy="53.5542" rx="1.23871" ry="1.26506" fill="#EF5B5B"/>
</svg>
