<svg width="34" height="26" viewBox="0 0 34 26" fill="none" xmlns="http://www.w3.org/2000/svg">
<path d="M0 9L9 0V6.24H22.7145C25.5248 6.24 28.2469 7.22064 30.4116 9.01281V9.01281C30.8025 9.33647 31.1539 9.70514 31.4584 10.1112L32.0093 10.8457C32.3343 11.2791 32.5873 11.762 32.7586 12.2759L33 13V13C33.9564 15.2317 33.9396 17.761 32.9535 19.9797L32.5984 20.7785C32.5331 20.9255 32.4477 21.0626 32.3445 21.1859L31.1148 22.656C29.8592 24.157 28.1799 25.2442 26.2965 25.7754V25.7754C25.768 25.9244 25.2215 26 24.6724 26H21.5H13.25L4.26141 25.1304C3.145 25.0224 2.13381 24.4254 1.5 23.5V23.5H21.1332C23.2747 23.5 25.314 22.5842 26.7368 20.9836V20.9836C27.8441 19.7379 28.2858 18.0362 27.9243 16.4092L27.8078 15.8852C27.6082 14.9871 27.1167 14.1805 26.4099 13.5916L25.8907 13.1589C24.9921 12.4101 23.8594 12 22.6898 12H9V17.5L0 9Z" fill="black"/>
</svg>
